<?xml version="1.0" encoding="UTF-8" standalone="no"?>
<svg
   xmlns:ns1="http://www.iki.fi/pav/software/textext/"
   xmlns:dc="http://purl.org/dc/elements/1.1/"
   xmlns:cc="http://creativecommons.org/ns#"
   xmlns:rdf="http://www.w3.org/1999/02/22-rdf-syntax-ns#"
   xmlns:svg="http://www.w3.org/2000/svg"
   xmlns="http://www.w3.org/2000/svg"
   xmlns:sodipodi="http://sodipodi.sourceforge.net/DTD/sodipodi-0.dtd"
   xmlns:inkscape="http://www.inkscape.org/namespaces/inkscape"
   inkscape:version="0.92.4 (5da689c313, 2019-01-14)"
   sodipodi:docname="q_problem.svg"
   viewBox="0 0 226.66667 196"
   height="196"
   width="226.66667"
   xml:space="preserve"
   id="svg180"
   version="1.1"><metadata
     id="metadata186"><rdf:RDF><cc:Work
         rdf:about=""><dc:format>image/svg+xml</dc:format><dc:type
           rdf:resource="http://purl.org/dc/dcmitype/StillImage" /><dc:title></dc:title></cc:Work></rdf:RDF></metadata><defs
     id="defs184"><marker
       style="overflow:visible"
       id="Arrow1Lstart"
       refX="0.0"
       refY="0.0"
       orient="auto"
       inkscape:stockid="Arrow1Lstart"
       inkscape:isstock="true"><path
         transform="scale(0.8) translate(12.5,0)"
         style="fill-rule:evenodd;stroke:#9d0006;stroke-width:1pt;stroke-opacity:0.97254902;fill:#9d0006;fill-opacity:0.97254902"
         d="M 0.0,0.0 L 5.0,-5.0 L -12.5,0.0 L 5.0,5.0 L 0.0,0.0 z "
         id="path1442" /></marker><marker
       style="overflow:visible;"
       id="Arrow1Lend"
       refX="0.0"
       refY="0.0"
       orient="auto"
       inkscape:stockid="Arrow1Lend"
       inkscape:isstock="true"><path
         transform="scale(0.8) rotate(180) translate(12.5,0)"
         style="fill-rule:evenodd;stroke:#9d0006;stroke-width:1pt;stroke-opacity:0.97254902;fill:#9d0006;fill-opacity:0.97254902"
         d="M 0.0,0.0 L 5.0,-5.0 L -12.5,0.0 L 5.0,5.0 L 0.0,0.0 z "
         id="path1445" /></marker><rect
       x="-463.98008"
       y="992.13864"
       width="311.3383"
       height="439.08099"
       id="rect1295" /><clipPath
       clipPathUnits="userSpaceOnUse"
       id="clipPath244"><path
         d="m 660,1000 h 110 v 240 H 660 Z"
         id="path242" /></clipPath><clipPath
       clipPathUnits="userSpaceOnUse"
       id="clipPath256"><path
         d="m 1100,1000 h 170 v 240 h -170 z"
         id="path254" /></clipPath><clipPath
       clipPathUnits="userSpaceOnUse"
       id="clipPath268"><path
         d="M 660,660 H 820 V 910 H 660 Z"
         id="path266" /></clipPath><clipPath
       clipPathUnits="userSpaceOnUse"
       id="clipPath280"><path
         d="m 1100,660 h 160 v 250 h -160 z"
         id="path278" /></clipPath></defs><sodipodi:namedview
     pagecolor="#ffffff"
     bordercolor="#666666"
     borderopacity="1"
     objecttolerance="10"
     gridtolerance="10"
     guidetolerance="10"
     inkscape:pageopacity="0"
     inkscape:pageshadow="2"
     inkscape:window-width="1680"
     inkscape:window-height="1050"
     id="namedview182"
     showgrid="false"
     showguides="true"
     inkscape:guide-bbox="true"
     inkscape:zoom="3.4814186"
     inkscape:cx="126.6207"
     inkscape:cy="111.21739"
     inkscape:window-x="1920"
     inkscape:window-y="0"
     inkscape:window-maximized="0"
     inkscape:current-layer="g190"><sodipodi:guide
       position="98.597475,165.2005"
       orientation="1,0"
       id="guide1137"
       inkscape:locked="false" /><sodipodi:guide
       position="98.597475,138.3171"
       orientation="0,-1"
       id="guide1219"
       inkscape:locked="false" /><sodipodi:guide
       position="135.06736,152.63627"
       orientation="1,0"
       id="guide1221"
       inkscape:locked="false" /><sodipodi:guide
       position="98.597475,94.750259"
       orientation="0,-1"
       id="guide1223"
       inkscape:locked="false" /><sodipodi:guide
       position="9.7921863,9.7708398"
       orientation="0,-1"
       id="guide1299"
       inkscape:locked="false" /><sodipodi:guide
       position="9.7921863,9.7708398"
       orientation="1,0"
       id="guide1301"
       inkscape:locked="false" /></sodipodi:namedview><g
     inkscape:groupmode="layer"
     id="layer2"
     inkscape:label="ink_ext_XXXXXX 1"><path
       d="M 1023.5461,180.135 H 1680.511 V 1284.5725 H 1023.5461 Z"
       style="fill:#9d0006;fill-opacity:0.50416666;fill-rule:nonzero;stroke:none;stroke-width:0.927756;opacity:0.99"
       id="path192"
       transform="matrix(0.13333333,0,0,-0.13333333,0,196)" /></g><g
     id="g188"
     inkscape:groupmode="layer"
     inkscape:label="ink_ext_XXXXXX"
     transform="matrix(1.3333333,0,0,-1.3333333,0,196)"><g
       inkscape:groupmode="layer"
       id="layer1"
       inkscape:label="Layer 1" /><g
       id="g190"
       transform="matrix(0.1,0,0,0.1,9e-5,0.064547)"><text
   xml:space="preserve"
   style="font-style:normal;font-weight:normal;font-size:278.32699585px;line-height:1.25;font-family:sans-serif;fill:#282828;fill-opacity:0.5903084;stroke:none;stroke-width:6.95816994"
   x="779.11481"
   y="-771.36426"
   id="text288-3"
   transform="scale(1.0049812,-0.99504352)"><tspan
     sodipodi:role="line"
     x="779.11481"
     y="-771.36426"
     style="fill:#282828;fill-opacity:0.5903084;stroke-width:6.95816994"
     id="tspan1139">3</tspan></text>









<path
   d="M 182.11647,179.48953 V 1455.43"
   style="fill:none;stroke:#23373b;stroke-width:6.96912003;stroke-linecap:butt;stroke-linejoin:miter;stroke-miterlimit:4;stroke-dasharray:none;stroke-opacity:1"
   id="path194"
   inkscape:connector-curvature="0" /><path
   d="m 182.11647,1386.0824 28.04459,-27.7685 -28.04459,97.1161 -28.0114,-97.1161 z"
   style="fill:#23373b;fill-opacity:1;fill-rule:evenodd;stroke:none;stroke-width:0.92775601"
   id="path196"
   inkscape:connector-curvature="0" /><path
   d="m 182.11647,1386.0824 28.04459,-27.7685 -28.04459,97.1161 -28.0114,-97.1161 z"
   style="fill:none;stroke:#23373b;stroke-width:7.43373013;stroke-linecap:butt;stroke-linejoin:miter;stroke-miterlimit:4;stroke-dasharray:none;stroke-opacity:1"
   id="path198"
   inkscape:connector-curvature="0" /><path
   d="M 182.11647,179.48953 H 1680.5101"
   style="fill:none;stroke:#23373b;stroke-width:6.96912003;stroke-linecap:butt;stroke-linejoin:miter;stroke-miterlimit:4;stroke-dasharray:none;stroke-opacity:1"
   id="path200"
   inkscape:connector-curvature="0" /><path
   d="m 1610.4699,179.48953 -28.0086,-27.73441 98.0488,27.73441 -98.0488,27.73044 z"
   style="fill:#23373b;fill-opacity:1;fill-rule:evenodd;stroke:none;stroke-width:0.92775601"
   id="path202"
   inkscape:connector-curvature="0" /><path
   d="m 1610.4699,179.48953 -28.0086,-27.73441 98.0488,27.73441 -98.0488,27.73044 z"
   style="fill:none;stroke:#23373b;stroke-width:7.43373013;stroke-linecap:butt;stroke-linejoin:miter;stroke-miterlimit:4;stroke-dasharray:none;stroke-opacity:1"
   id="path204"
   inkscape:connector-curvature="0" /><path
   d="M 185.53643,1037.3783 H 1681.6133"
   style="fill:none;stroke:#458588;stroke-width:6.95816994;stroke-linecap:butt;stroke-linejoin:miter;stroke-miterlimit:4;stroke-dasharray:none;stroke-opacity:1"
   id="path206"
   inkscape:connector-curvature="0"
   sodipodi:nodetypes="cc" /><path
   d="M 1023.5461,1283.9259 V 182.378"
   style="fill:none;stroke:#9d0006;stroke-width:6.95816994;stroke-linecap:butt;stroke-linejoin:miter;stroke-miterlimit:4;stroke-dasharray:none;stroke-opacity:0.97254902"
   id="path208"
   inkscape:connector-curvature="0" /><text
   xml:space="preserve"
   style="font-style:normal;font-weight:normal;font-size:278.32699585px;line-height:1.25;font-family:sans-serif;fill:#282828;fill-opacity:0.5903084;stroke:none;stroke-width:6.95816994"
   x="791.84937"
   y="-1071.2407"
   id="text288"
   transform="scale(1.0049812,-0.9950435)"><tspan
     sodipodi:role="line"
     id="tspan286"
     x="791.84937"
     y="-1071.2407"
     style="fill:#282828;fill-opacity:0.5903084;stroke-width:6.95816994">2</tspan></text>









<text
   xml:space="preserve"
   style="font-style:normal;font-weight:normal;font-size:300px;line-height:1.25;font-family:sans-serif;fill:#000000;fill-opacity:1;stroke:none;stroke-width:7.5"
   x="1296.0647"
   y="-1225.6923"
   id="text1145"
   transform="scale(1,-1)"><tspan
     sodipodi:role="line"
     id="tspan1143"
     x="1296.0647"
     y="-960.26257"
     style="stroke-width:7.5" /></text>









<text
   xml:space="preserve"
   style="font-style:normal;font-weight:normal;font-size:278.32699585px;line-height:1.25;font-family:sans-serif;fill:#282828;fill-opacity:0.5903084;stroke:none;stroke-width:6.95816994"
   x="1044.449"
   y="-770.97791"
   id="text288-3-7"
   transform="scale(1.0049812,-0.99504352)"><tspan
     sodipodi:role="line"
     x="1044.449"
     y="-770.97791"
     style="fill:#282828;fill-opacity:0.5903084;stroke-width:6.95816994"
     id="tspan1139-5">4</tspan></text>









<text
   xml:space="preserve"
   style="font-style:normal;font-weight:normal;font-size:278.32699585px;line-height:1.25;font-family:sans-serif;fill:#282828;fill-opacity:0.5903084;stroke:none;stroke-width:6.95816994"
   x="1040.163"
   y="-1074.2875"
   id="text288-3-3"
   transform="scale(1.0049812,-0.99504352)"><tspan
     sodipodi:role="line"
     x="1040.163"
     y="-1074.2875"
     style="fill:#282828;fill-opacity:0.5903084;stroke-width:6.95816994"
     id="tspan1139-56">1</tspan></text>





































<text
   xml:space="preserve"
   id="text1293"
   style="font-size:80px;line-height:1.25;font-family:sans-serif;white-space:pre;shape-inside:url(#rect1295)" />









<ellipse
   id="path1303"
   style="fill:#eb3636;stroke:#000000;stroke-width:6.95816994"
   cx="191.05568"
   cy="-470.63742"
   transform="scale(1,-1)"
   rx="0.50165135"
   ry="0.49669084" /><path
   style="fill:#000000;fill-opacity:0;stroke:#23373b;stroke-width:6.95816994px;stroke-linecap:butt;stroke-linejoin:miter;stroke-opacity:1"
   d="m 182.11647,534.89467 c 0,0 147.42924,-68.13777 155.24439,-50.31992 17.62871,27.27129 29.39068,30.68092 107.33385,43.1641 47.77235,9.44813 93.43874,-58.64391 93.43874,-58.64391 41.44557,-23.91093 79.16586,41.6913 109.4739,3.73927 21.03869,-31.54313 15.12941,-57.94528 42.55622,-66.30482 l 73.25514,-3.76783 c 39.69776,-2.08135 81.30267,50.08635 113.39901,56.03737 0,0 75.78523,9.70305 118.33968,29.53379 0,0 126.0467,52.26921 148.4211,73.26859 0,0 83.7368,55.66158 96.255,92.98611 0,0 38.4561,84.09276 42.592,134.57883 l 19.7735,110.84089 c 0,0 47.5975,169.49546 52.9873,175.32316 12.3515,14.2171 16.0745,44.463 55.4832,48.5766 0,0 77.0096,4.6266 84.1744,0.493 28.5492,-20.5159 23.3234,-12.2356 29.5981,-35.1212 l 17.4157,-196.05303 c 0,0 8.1853,-150.61934 15.135,-174.52941 0,0 5.088,-14.2361 28.0552,-14.34489"
   id="path1305"
   sodipodi:nodetypes="cccccccccccccccccccc"
   inkscape:connector-curvature="0" />






<path
   style="fill:none;stroke:#9d0006;stroke-width:3;stroke-linecap:butt;stroke-linejoin:miter;stroke-miterlimit:4;stroke-dasharray:none;stroke-opacity:0.97254902;marker-end:url(#Arrow1Lend)"
   d="M 1408.1135,340.92642 H 1672.401"
   id="path1440"
   inkscape:connector-curvature="0" /><g
   id="g1335"
   ns1:jacobian_sqrt="5.333334"
   inkscapeversion="1.0.2"
   ns1:alignment="middle center"
   ns1:scale="4.0"
   ns1:preamble="/home/tk/.config/inkscape/extensions/textext/default_packages.tex"
   ns1:text="Anomalie Score"
   ns1:pdfconverter="pdf2svg"
   ns1:texconverter="pdflatex"
   ns1:version="0.11.1"
   transform="matrix(0,8.7891411,8.7891411,0,-1057.0564,-787.76754)"><g
   id="surface1">
<g
   id="g1320"
   style="fill:#000000;fill-opacity:1">
  <path
   id="path1304"
   transform="translate(148.712,134.765)"
   d="m 3.96875,-6.9375 c -0.046875,-0.125 -0.078125,-0.203125 -0.234375,-0.203125 -0.15625,0 -0.1875,0.0625 -0.234375,0.203125 L 1.4375,-0.984375 C 1.25,-0.46875 0.859375,-0.3125 0.3125,-0.3125 V 0 c 0.234375,-0.015625 0.671875,-0.03125 1.015625,-0.03125 0.3125,0 0.828125,0.015625 1.15625,0.03125 v -0.3125 c -0.5,0 -0.75,-0.25 -0.75,-0.5 0,-0.03125 0.015625,-0.140625 0.015625,-0.15625 L 2.21875,-2.265625 H 4.671875 L 5.203125,-0.75 c 0.015625,0.046875 0.03125,0.109375 0.03125,0.140625 0,0.296875 -0.5625,0.296875 -0.828125,0.296875 V 0 c 0.359375,-0.03125 1.0625,-0.03125 1.4375,-0.03125 0.421875,0 0.890625,0.015625 1.296875,0.03125 V -0.3125 H 6.96875 C 6.375,-0.3125 6.234375,-0.375 6.125,-0.703125 Z m -0.53125,1.109375 1.125,3.25 H 2.328125 Z m 0,0"
   style="stroke:none;stroke-width:0"
   inkscape:connector-curvature="0" />
<path
   id="path1306"
   transform="translate(156.18395,134.765)"
   d="M 1.09375,-3.421875 V -0.75 c 0,0.4375 -0.109375,0.4375 -0.78125,0.4375 V 0 c 0.359375,-0.015625 0.859375,-0.03125 1.140625,-0.03125 0.25,0 0.765625,0.015625 1.109375,0.03125 v -0.3125 c -0.671875,0 -0.78125,0 -0.78125,-0.4375 V -2.59375 C 1.78125,-3.625 2.5,-4.1875 3.125,-4.1875 c 0.640625,0 0.75,0.53125 0.75,1.109375 V -0.75 c 0,0.4375 -0.109375,0.4375 -0.78125,0.4375 V 0 c 0.34375,-0.015625 0.859375,-0.03125 1.125,-0.03125 0.25,0 0.78125,0.015625 1.109375,0.03125 v -0.3125 c -0.515625,0 -0.765625,0 -0.765625,-0.296875 v -1.90625 c 0,-0.859375 0,-1.15625 -0.3125,-1.515625 -0.140625,-0.171875 -0.46875,-0.375 -1.046875,-0.375 C 2.46875,-4.40625 2,-3.984375 1.71875,-3.359375 V -4.40625 L 0.3125,-4.296875 v 0.3125 c 0.703125,0 0.78125,0.0625 0.78125,0.5625 z m 0,0"
   style="stroke:none;stroke-width:0"
   inkscape:connector-curvature="0" />
<path
   id="path1308"
   transform="translate(161.71917,134.765)"
   d="M 4.6875,-2.140625 C 4.6875,-3.40625 3.703125,-4.46875 2.5,-4.46875 c -1.25,0 -2.21875,1.09375 -2.21875,2.328125 0,1.296875 1.03125,2.25 2.203125,2.25 1.203125,0 2.203125,-0.984375 2.203125,-2.25 z m -2.1875,2 c -0.4375,0 -0.875,-0.203125 -1.140625,-0.671875 -0.25,-0.4375 -0.25,-1.046875 -0.25,-1.40625 0,-0.390625 0,-0.921875 0.234375,-1.359375 C 1.609375,-4.03125 2.078125,-4.25 2.484375,-4.25 c 0.4375,0 0.859375,0.21875 1.125,0.65625 0.265625,0.421875 0.265625,1 0.265625,1.375 0,0.359375 0,0.90625 -0.21875,1.34375 C 3.421875,-0.421875 2.984375,-0.140625 2.5,-0.140625 Z m 0,0"
   style="stroke:none;stroke-width:0"
   inkscape:connector-curvature="0" />
<path
   id="path1310"
   transform="translate(166.70047,134.765)"
   d="M 1.09375,-3.421875 V -0.75 c 0,0.4375 -0.109375,0.4375 -0.78125,0.4375 V 0 c 0.359375,-0.015625 0.859375,-0.03125 1.140625,-0.03125 0.25,0 0.765625,0.015625 1.109375,0.03125 v -0.3125 c -0.671875,0 -0.78125,0 -0.78125,-0.4375 V -2.59375 C 1.78125,-3.625 2.5,-4.1875 3.125,-4.1875 c 0.640625,0 0.75,0.53125 0.75,1.109375 V -0.75 c 0,0.4375 -0.109375,0.4375 -0.78125,0.4375 V 0 c 0.34375,-0.015625 0.859375,-0.03125 1.125,-0.03125 0.25,0 0.78125,0.015625 1.109375,0.03125 v -0.3125 c -0.65625,0 -0.765625,0 -0.765625,-0.4375 v -1.84375 c 0,-1.03125 0.703125,-1.59375 1.34375,-1.59375 0.625,0 0.734375,0.53125 0.734375,1.109375 V -0.75 c 0,0.4375 -0.109375,0.4375 -0.78125,0.4375 V 0 c 0.34375,-0.015625 0.859375,-0.03125 1.125,-0.03125 0.265625,0 0.78125,0.015625 1.125,0.03125 v -0.3125 c -0.515625,0 -0.765625,0 -0.78125,-0.296875 v -1.90625 c 0,-0.859375 0,-1.15625 -0.3125,-1.515625 -0.140625,-0.171875 -0.46875,-0.375 -1.046875,-0.375 -0.828125,0 -1.28125,0.59375 -1.4375,0.984375 C 4.390625,-4.296875 3.65625,-4.40625 3.203125,-4.40625 2.46875,-4.40625 2,-3.984375 1.71875,-3.359375 V -4.40625 L 0.3125,-4.296875 v 0.3125 c 0.703125,0 0.78125,0.0625 0.78125,0.5625 z m 0,0"
   style="stroke:none;stroke-width:0"
   inkscape:connector-curvature="0" />
<path
   id="path1312"
   transform="translate(175.0023,134.765)"
   d="m 3.3125,-0.75 c 0.046875,0.390625 0.3125,0.8125 0.78125,0.8125 0.21875,0 0.828125,-0.140625 0.828125,-0.953125 v -0.5625 h -0.25 v 0.5625 c 0,0.578125 -0.25,0.640625 -0.359375,0.640625 -0.328125,0 -0.375,-0.453125 -0.375,-0.5 v -1.984375 c 0,-0.421875 0,-0.8125 -0.359375,-1.1875 C 3.1875,-4.3125 2.6875,-4.46875 2.21875,-4.46875 c -0.828125,0 -1.515625,0.46875 -1.515625,1.125 0,0.296875 0.203125,0.46875 0.46875,0.46875 0.28125,0 0.453125,-0.203125 0.453125,-0.453125 0,-0.125 -0.046875,-0.453125 -0.515625,-0.453125 C 1.390625,-4.140625 1.875,-4.25 2.1875,-4.25 c 0.5,0 1.0625,0.390625 1.0625,1.28125 v 0.359375 c -0.515625,0.03125 -1.203125,0.0625 -1.828125,0.359375 -0.75,0.34375 -1,0.859375 -1,1.296875 0,0.8125 0.96875,1.0625 1.59375,1.0625 0.65625,0 1.109375,-0.40625 1.296875,-0.859375 z M 3.25,-2.390625 v 1 c 0,0.9375 -0.71875,1.28125 -1.171875,1.28125 -0.484375,0 -0.890625,-0.34375 -0.890625,-0.84375 0,-0.546875 0.421875,-1.375 2.0625,-1.4375 z m 0,0"
   style="stroke:none;stroke-width:0"
   inkscape:connector-curvature="0" />
<path
   id="path1314"
   transform="translate(179.9836,134.765)"
   d="M 1.765625,-6.921875 0.328125,-6.8125 V -6.5 c 0.703125,0 0.78125,0.0625 0.78125,0.5625 V -0.75 c 0,0.4375 -0.109375,0.4375 -0.78125,0.4375 V 0 C 0.65625,-0.015625 1.1875,-0.03125 1.4375,-0.03125 c 0.25,0 0.734375,0.015625 1.109375,0.03125 v -0.3125 c -0.671875,0 -0.78125,0 -0.78125,-0.4375 z m 0,0"
   style="stroke:none;stroke-width:0"
   inkscape:connector-curvature="0" />
<path
   id="path1316"
   transform="translate(182.75121,134.765)"
   d="M 1.765625,-4.40625 0.375,-4.296875 v 0.3125 c 0.640625,0 0.734375,0.0625 0.734375,0.546875 V -0.75 c 0,0.4375 -0.109375,0.4375 -0.78125,0.4375 V 0 C 0.640625,-0.015625 1.1875,-0.03125 1.421875,-0.03125 1.78125,-0.03125 2.125,-0.015625 2.46875,0 v -0.3125 c -0.671875,0 -0.703125,-0.046875 -0.703125,-0.4375 z m 0.03125,-1.734375 c 0,-0.3125 -0.234375,-0.53125 -0.515625,-0.53125 -0.3125,0 -0.53125,0.265625 -0.53125,0.53125 0,0.265625 0.21875,0.53125 0.53125,0.53125 0.28125,0 0.515625,-0.21875 0.515625,-0.53125 z m 0,0"
   style="stroke:none;stroke-width:0"
   inkscape:connector-curvature="0" />
<path
   id="path1318"
   transform="translate(185.51883,134.765)"
   d="M 1.109375,-2.515625 C 1.171875,-4 2.015625,-4.25 2.359375,-4.25 c 1.015625,0 1.125,1.34375 1.125,1.734375 z m 0,0.21875 h 2.78125 c 0.21875,0 0.25,0 0.25,-0.21875 0,-0.984375 -0.546875,-1.953125 -1.78125,-1.953125 -1.15625,0 -2.078125,1.03125 -2.078125,2.28125 0,1.328125 1.046875,2.296875 2.1875,2.296875 C 3.6875,0.109375 4.140625,-1 4.140625,-1.1875 4.140625,-1.28125 4.0625,-1.3125 4,-1.3125 c -0.078125,0 -0.109375,0.0625 -0.125,0.140625 -0.34375,1.03125 -1.25,1.03125 -1.34375,1.03125 -0.5,0 -0.890625,-0.296875 -1.125,-0.671875 -0.296875,-0.46875 -0.296875,-1.125 -0.296875,-1.484375 z m 0,0"
   style="stroke:none;stroke-width:0"
   inkscape:connector-curvature="0" />
</g>
<g
   id="g1332"
   style="fill:#000000;fill-opacity:1">
  <path
   id="path1322"
   transform="translate(193.26375,134.765)"
   d="m 3.484375,-3.875 -1.28125,-0.296875 c -0.625,-0.15625 -1,-0.6875 -1,-1.265625 0,-0.703125 0.53125,-1.3125 1.3125,-1.3125 1.65625,0 1.875,1.640625 1.9375,2.078125 0.015625,0.0625 0.015625,0.125 0.125,0.125 0.125,0 0.125,-0.046875 0.125,-0.234375 v -2 c 0,-0.171875 0,-0.25 -0.109375,-0.25 -0.0625,0 -0.078125,0.015625 -0.140625,0.140625 l -0.359375,0.5625 C 3.796875,-6.625 3.390625,-7.03125 2.5,-7.03125 c -1.109375,0 -1.9375,0.875 -1.9375,1.9375 0,0.828125 0.53125,1.5625 1.296875,1.828125 0.109375,0.03125 0.625,0.15625 1.328125,0.328125 0.265625,0.0625 0.5625,0.140625 0.84375,0.5 0.203125,0.265625 0.3125,0.59375 0.3125,0.921875 0,0.703125 -0.5,1.421875 -1.34375,1.421875 -0.28125,0 -1.046875,-0.046875 -1.578125,-0.53125 C 0.84375,-1.171875 0.8125,-1.796875 0.8125,-2.15625 0.796875,-2.265625 0.71875,-2.265625 0.6875,-2.265625 c -0.125,0 -0.125,0.078125 -0.125,0.25 v 2 c 0,0.171875 0,0.234375 0.109375,0.234375 0.0625,0 0.078125,-0.015625 0.140625,-0.125 0,-0.015625 0.03125,-0.046875 0.359375,-0.578125 0.3125,0.34375 0.953125,0.703125 1.84375,0.703125 1.15625,0 1.953125,-0.96875 1.953125,-2.078125 0,-0.984375 -0.65625,-1.8125 -1.484375,-2.015625 z m 0,0"
   style="stroke:none;stroke-width:0"
   inkscape:connector-curvature="0" />
<path
   id="path1324"
   transform="translate(198.79897,134.765)"
   d="m 1.171875,-2.171875 c 0,-1.625 0.8125,-2.046875 1.34375,-2.046875 0.09375,0 0.71875,0.015625 1.0625,0.375 -0.40625,0.03125 -0.46875,0.328125 -0.46875,0.453125 0,0.265625 0.1875,0.453125 0.453125,0.453125 0.265625,0 0.46875,-0.15625 0.46875,-0.46875 0,-0.671875 -0.765625,-1.0625 -1.53125,-1.0625 -1.25,0 -2.15625,1.078125 -2.15625,2.3125 0,1.28125 0.984375,2.265625 2.140625,2.265625 1.328125,0 1.65625,-1.203125 1.65625,-1.296875 0,-0.09375 -0.109375,-0.09375 -0.140625,-0.09375 -0.078125,0 -0.109375,0.03125 -0.125,0.09375 -0.28125,0.921875 -0.9375,1.046875 -1.296875,1.046875 -0.53125,0 -1.40625,-0.421875 -1.40625,-2.03125 z m 0,0"
   style="stroke:none;stroke-width:0"
   inkscape:connector-curvature="0" />
<path
   id="path1326"
   transform="translate(203.22635,134.765)"
   d="M 4.6875,-2.140625 C 4.6875,-3.40625 3.703125,-4.46875 2.5,-4.46875 c -1.25,0 -2.21875,1.09375 -2.21875,2.328125 0,1.296875 1.03125,2.25 2.203125,2.25 1.203125,0 2.203125,-0.984375 2.203125,-2.25 z m -2.1875,2 c -0.4375,0 -0.875,-0.203125 -1.140625,-0.671875 -0.25,-0.4375 -0.25,-1.046875 -0.25,-1.40625 0,-0.390625 0,-0.921875 0.234375,-1.359375 C 1.609375,-4.03125 2.078125,-4.25 2.484375,-4.25 c 0.4375,0 0.859375,0.21875 1.125,0.65625 0.265625,0.421875 0.265625,1 0.265625,1.375 0,0.359375 0,0.90625 -0.21875,1.34375 C 3.421875,-0.421875 2.984375,-0.140625 2.5,-0.140625 Z m 0,0"
   style="stroke:none;stroke-width:0"
   inkscape:connector-curvature="0" />
<path
   id="path1328"
   transform="translate(208.20765,134.765)"
   d="M 1.671875,-3.3125 V -4.40625 L 0.28125,-4.296875 v 0.3125 c 0.703125,0 0.78125,0.0625 0.78125,0.5625 V -0.75 c 0,0.4375 -0.109375,0.4375 -0.78125,0.4375 V 0 c 0.390625,-0.015625 0.859375,-0.03125 1.140625,-0.03125 0.390625,0 0.859375,0 1.265625,0.03125 V -0.3125 H 2.46875 c -0.734375,0 -0.75,-0.109375 -0.75,-0.46875 V -2.3125 c 0,-0.984375 0.421875,-1.875 1.171875,-1.875 0.0625,0 0.09375,0 0.109375,0.015625 -0.03125,0 -0.234375,0.125 -0.234375,0.390625 0,0.265625 0.21875,0.421875 0.4375,0.421875 0.171875,0 0.421875,-0.125 0.421875,-0.4375 0,-0.3125 -0.3125,-0.609375 -0.734375,-0.609375 -0.734375,0 -1.09375,0.671875 -1.21875,1.09375 z m 0,0"
   style="stroke:none;stroke-width:0"
   inkscape:connector-curvature="0" />
<path
   id="path1330"
   transform="translate(212.11,134.765)"
   d="M 1.109375,-2.515625 C 1.171875,-4 2.015625,-4.25 2.359375,-4.25 c 1.015625,0 1.125,1.34375 1.125,1.734375 z m 0,0.21875 h 2.78125 c 0.21875,0 0.25,0 0.25,-0.21875 0,-0.984375 -0.546875,-1.953125 -1.78125,-1.953125 -1.15625,0 -2.078125,1.03125 -2.078125,2.28125 0,1.328125 1.046875,2.296875 2.1875,2.296875 C 3.6875,0.109375 4.140625,-1 4.140625,-1.1875 4.140625,-1.28125 4.0625,-1.3125 4,-1.3125 c -0.078125,0 -0.109375,0.0625 -0.125,0.140625 -0.34375,1.03125 -1.25,1.03125 -1.34375,1.03125 -0.5,0 -0.890625,-0.296875 -1.125,-0.671875 -0.296875,-0.46875 -0.296875,-1.125 -0.296875,-1.484375 z m 0,0"
   style="stroke:none;stroke-width:0"
   inkscape:connector-curvature="0" />
</g>
</g>
</g><g
   id="g1449"
   ns1:jacobian_sqrt="5.333333"
   inkscapeversion="1.0.2"
   ns1:alignment="middle center"
   ns1:scale="4.0"
   ns1:preamble="/home/tk/.config/inkscape/extensions/textext/default_packages.tex"
   ns1:text="Zeit"
   ns1:pdfconverter="pdf2svg"
   ns1:texconverter="pdflatex"
   ns1:version="0.11.1"
   transform="matrix(7.5713806,0,0,-7.5713806,-259.59723,1129.1269)"><g
   id="g1447">
<g
   id="g1445"
   style="fill:#000000;fill-opacity:1">
  <path
   id="path1437"
   transform="translate(148.712,134.765)"
   d="m 5.453125,-6.453125 c 0.0625,-0.109375 0.0625,-0.125 0.0625,-0.203125 0,-0.15625 -0.046875,-0.15625 -0.25,-0.15625 h -4.46875 l -0.109375,2.25 h 0.25 C 1,-5.6875 1.3125,-6.5 2.9375,-6.5 H 4.5 L 0.625,-0.375 C 0.5625,-0.265625 0.5625,-0.25 0.5625,-0.171875 0.5625,0 0.609375,0 0.8125,0 h 4.59375 l 0.171875,-2.65625 h -0.25 C 5.25,-1.28125 5.0625,-0.34375 3.21875,-0.34375 H 1.578125 Z m 0,0"
   style="stroke:none;stroke-width:0"
   inkscape:connector-curvature="0" />
<path
   id="path1439"
   transform="translate(154.80014,134.765)"
   d="M 1.109375,-2.515625 C 1.171875,-4 2.015625,-4.25 2.359375,-4.25 c 1.015625,0 1.125,1.34375 1.125,1.734375 z m 0,0.21875 h 2.78125 c 0.21875,0 0.25,0 0.25,-0.21875 0,-0.984375 -0.546875,-1.953125 -1.78125,-1.953125 -1.15625,0 -2.078125,1.03125 -2.078125,2.28125 0,1.328125 1.046875,2.296875 2.1875,2.296875 C 3.6875,0.109375 4.140625,-1 4.140625,-1.1875 4.140625,-1.28125 4.0625,-1.3125 4,-1.3125 c -0.078125,0 -0.109375,0.0625 -0.125,0.140625 -0.34375,1.03125 -1.25,1.03125 -1.34375,1.03125 -0.5,0 -0.890625,-0.296875 -1.125,-0.671875 -0.296875,-0.46875 -0.296875,-1.125 -0.296875,-1.484375 z m 0,0"
   style="stroke:none;stroke-width:0"
   inkscape:connector-curvature="0" />
<path
   id="path1441"
   transform="translate(159.22752,134.765)"
   d="M 1.765625,-4.40625 0.375,-4.296875 v 0.3125 c 0.640625,0 0.734375,0.0625 0.734375,0.546875 V -0.75 c 0,0.4375 -0.109375,0.4375 -0.78125,0.4375 V 0 C 0.640625,-0.015625 1.1875,-0.03125 1.421875,-0.03125 1.78125,-0.03125 2.125,-0.015625 2.46875,0 v -0.3125 c -0.671875,0 -0.703125,-0.046875 -0.703125,-0.4375 z m 0.03125,-1.734375 c 0,-0.3125 -0.234375,-0.53125 -0.515625,-0.53125 -0.3125,0 -0.53125,0.265625 -0.53125,0.53125 0,0.265625 0.21875,0.53125 0.53125,0.53125 0.28125,0 0.515625,-0.21875 0.515625,-0.53125 z m 0,0"
   style="stroke:none;stroke-width:0"
   inkscape:connector-curvature="0" />
<path
   id="path1443"
   transform="translate(161.99513,134.765)"
   d="m 1.71875,-3.984375 h 1.4375 v -0.3125 H 1.71875 V -6.125 h -0.25 c 0,0.8125 -0.296875,1.875 -1.28125,1.921875 v 0.21875 h 0.84375 v 2.75 c 0,1.21875 0.9375,1.34375 1.296875,1.34375 0.703125,0 0.984375,-0.703125 0.984375,-1.34375 v -0.5625 h -0.25 V -1.25 c 0,0.734375 -0.296875,1.109375 -0.671875,1.109375 -0.671875,0 -0.671875,-0.90625 -0.671875,-1.078125 z m 0,0"
   style="stroke:none;stroke-width:0"
   inkscape:connector-curvature="0" />
</g>
</g>
</g><g
   id="g1582"
   ns1:jacobian_sqrt="5.333333"
   inkscapeversion="1.0.2"
   ns1:alignment="middle center"
   ns1:scale="4.0"
   ns1:preamble="/home/tk/.config/inkscape/extensions/textext/default_packages.tex"
   ns1:text="Schwellwert"
   ns1:pdfconverter="pdf2svg"
   ns1:texconverter="pdflatex"
   ns1:version="0.11.1"
   transform="matrix(6.8466574,0,0,-6.8466574,-804.59035,1991.6752)"><g
   id="g1580">
<g
   id="g1552"
   style="fill:#000000;fill-opacity:1">
  <path
   id="path1548"
   transform="translate(148.712,134.765)"
   d="m 3.484375,-3.875 -1.28125,-0.296875 c -0.625,-0.15625 -1,-0.6875 -1,-1.265625 0,-0.703125 0.53125,-1.3125 1.3125,-1.3125 1.65625,0 1.875,1.640625 1.9375,2.078125 0.015625,0.0625 0.015625,0.125 0.125,0.125 0.125,0 0.125,-0.046875 0.125,-0.234375 v -2 c 0,-0.171875 0,-0.25 -0.109375,-0.25 -0.0625,0 -0.078125,0.015625 -0.140625,0.140625 l -0.359375,0.5625 C 3.796875,-6.625 3.390625,-7.03125 2.5,-7.03125 c -1.109375,0 -1.9375,0.875 -1.9375,1.9375 0,0.828125 0.53125,1.5625 1.296875,1.828125 0.109375,0.03125 0.625,0.15625 1.328125,0.328125 0.265625,0.0625 0.5625,0.140625 0.84375,0.5 0.203125,0.265625 0.3125,0.59375 0.3125,0.921875 0,0.703125 -0.5,1.421875 -1.34375,1.421875 -0.28125,0 -1.046875,-0.046875 -1.578125,-0.53125 C 0.84375,-1.171875 0.8125,-1.796875 0.8125,-2.15625 0.796875,-2.265625 0.71875,-2.265625 0.6875,-2.265625 c -0.125,0 -0.125,0.078125 -0.125,0.25 v 2 c 0,0.171875 0,0.234375 0.109375,0.234375 0.0625,0 0.078125,-0.015625 0.140625,-0.125 0,-0.015625 0.03125,-0.046875 0.359375,-0.578125 0.3125,0.34375 0.953125,0.703125 1.84375,0.703125 1.15625,0 1.953125,-0.96875 1.953125,-2.078125 0,-0.984375 -0.65625,-1.8125 -1.484375,-2.015625 z m 0,0"
   style="stroke:none;stroke-width:0"
   inkscape:connector-curvature="0" />
<path
   id="path1550"
   transform="translate(154.24722,134.765)"
   d="m 1.171875,-2.171875 c 0,-1.625 0.8125,-2.046875 1.34375,-2.046875 0.09375,0 0.71875,0.015625 1.0625,0.375 -0.40625,0.03125 -0.46875,0.328125 -0.46875,0.453125 0,0.265625 0.1875,0.453125 0.453125,0.453125 0.265625,0 0.46875,-0.15625 0.46875,-0.46875 0,-0.671875 -0.765625,-1.0625 -1.53125,-1.0625 -1.25,0 -2.15625,1.078125 -2.15625,2.3125 0,1.28125 0.984375,2.265625 2.140625,2.265625 1.328125,0 1.65625,-1.203125 1.65625,-1.296875 0,-0.09375 -0.109375,-0.09375 -0.140625,-0.09375 -0.078125,0 -0.109375,0.03125 -0.125,0.09375 -0.28125,0.921875 -0.9375,1.046875 -1.296875,1.046875 -0.53125,0 -1.40625,-0.421875 -1.40625,-2.03125 z m 0,0"
   style="stroke:none;stroke-width:0"
   inkscape:connector-curvature="0" />
</g>
<g
   id="g1556"
   style="fill:#000000;fill-opacity:1">
  <path
   id="path1554"
   transform="translate(158.39565,134.765)"
   d="m 1.09375,-0.75 c 0,0.4375 -0.109375,0.4375 -0.78125,0.4375 V 0 c 0.359375,-0.015625 0.859375,-0.03125 1.140625,-0.03125 0.25,0 0.765625,0.015625 1.109375,0.03125 v -0.3125 c -0.671875,0 -0.78125,0 -0.78125,-0.4375 V -2.59375 C 1.78125,-3.625 2.5,-4.1875 3.125,-4.1875 c 0.640625,0 0.75,0.53125 0.75,1.109375 V -0.75 c 0,0.4375 -0.109375,0.4375 -0.78125,0.4375 V 0 c 0.34375,-0.015625 0.859375,-0.03125 1.125,-0.03125 0.25,0 0.78125,0.015625 1.109375,0.03125 v -0.3125 c -0.515625,0 -0.765625,0 -0.765625,-0.296875 v -1.90625 c 0,-0.859375 0,-1.15625 -0.3125,-1.515625 -0.140625,-0.171875 -0.46875,-0.375 -1.046875,-0.375 -0.84375,0 -1.28125,0.59375 -1.453125,0.984375 v -3.5 L 0.3125,-6.8125 V -6.5 c 0.703125,0 0.78125,0.0625 0.78125,0.5625 z m 0,0"
   style="stroke:none;stroke-width:0"
   inkscape:connector-curvature="0" />
</g>
<g
   id="g1560"
   style="fill:#000000;fill-opacity:1">
  <path
   id="path1558"
   transform="translate(163.65191,134.765)"
   d="m 6.171875,-3.34375 c 0.171875,-0.5 0.484375,-0.640625 0.84375,-0.640625 v -0.3125 C 6.78125,-4.28125 6.5,-4.265625 6.28125,-4.265625 c -0.296875,0 -0.734375,-0.015625 -0.921875,-0.03125 v 0.3125 c 0.359375,0 0.578125,0.1875 0.578125,0.46875 0,0.0625 0,0.09375 -0.0625,0.21875 L 4.96875,-0.75 3.984375,-3.53125 C 3.953125,-3.65625 3.9375,-3.671875 3.9375,-3.71875 c 0,-0.265625 0.390625,-0.265625 0.59375,-0.265625 v -0.3125 c -0.296875,0.015625 -0.796875,0.03125 -1.046875,0.03125 -0.296875,0 -0.578125,-0.015625 -0.875,-0.03125 v 0.3125 c 0.359375,0 0.515625,0.015625 0.625,0.140625 0.046875,0.0625 0.15625,0.359375 0.21875,0.546875 L 2.609375,-0.875 1.65625,-3.53125 C 1.609375,-3.65625 1.609375,-3.671875 1.609375,-3.71875 1.609375,-3.984375 2,-3.984375 2.1875,-3.984375 v -0.3125 c -0.296875,0.015625 -0.859375,0.03125 -1.078125,0.03125 -0.046875,0 -0.578125,-0.015625 -0.9375,-0.03125 v 0.3125 c 0.5,0 0.625,0.03125 0.75,0.34375 l 1.25,3.53125 C 2.21875,0.03125 2.25,0.109375 2.375,0.109375 c 0.140625,0 0.15625,-0.0625 0.203125,-0.203125 l 1.015625,-2.8125 1.015625,2.828125 c 0.03125,0.109375 0.0625,0.1875 0.203125,0.1875 0.125,0 0.15625,-0.09375 0.1875,-0.1875 z m 0,0"
   style="stroke:none;stroke-width:0"
   inkscape:connector-curvature="0" />
</g>
<g
   id="g1570"
   style="fill:#000000;fill-opacity:1">
  <path
   id="path1562"
   transform="translate(170.57791,134.765)"
   d="M 1.109375,-2.515625 C 1.171875,-4 2.015625,-4.25 2.359375,-4.25 c 1.015625,0 1.125,1.34375 1.125,1.734375 z m 0,0.21875 h 2.78125 c 0.21875,0 0.25,0 0.25,-0.21875 0,-0.984375 -0.546875,-1.953125 -1.78125,-1.953125 -1.15625,0 -2.078125,1.03125 -2.078125,2.28125 0,1.328125 1.046875,2.296875 2.1875,2.296875 C 3.6875,0.109375 4.140625,-1 4.140625,-1.1875 4.140625,-1.28125 4.0625,-1.3125 4,-1.3125 c -0.078125,0 -0.109375,0.0625 -0.125,0.140625 -0.34375,1.03125 -1.25,1.03125 -1.34375,1.03125 -0.5,0 -0.890625,-0.296875 -1.125,-0.671875 -0.296875,-0.46875 -0.296875,-1.125 -0.296875,-1.484375 z m 0,0"
   style="stroke:none;stroke-width:0"
   inkscape:connector-curvature="0" />
<path
   id="path1564"
   transform="translate(175.00529,134.765)"
   d="M 1.765625,-6.921875 0.328125,-6.8125 V -6.5 c 0.703125,0 0.78125,0.0625 0.78125,0.5625 V -0.75 c 0,0.4375 -0.109375,0.4375 -0.78125,0.4375 V 0 C 0.65625,-0.015625 1.1875,-0.03125 1.4375,-0.03125 c 0.25,0 0.734375,0.015625 1.109375,0.03125 v -0.3125 c -0.671875,0 -0.78125,0 -0.78125,-0.4375 z m 0,0"
   style="stroke:none;stroke-width:0"
   inkscape:connector-curvature="0" />
<path
   id="path1566"
   transform="translate(177.7729,134.765)"
   d="M 1.765625,-6.921875 0.328125,-6.8125 V -6.5 c 0.703125,0 0.78125,0.0625 0.78125,0.5625 V -0.75 c 0,0.4375 -0.109375,0.4375 -0.78125,0.4375 V 0 C 0.65625,-0.015625 1.1875,-0.03125 1.4375,-0.03125 c 0.25,0 0.734375,0.015625 1.109375,0.03125 v -0.3125 c -0.671875,0 -0.78125,0 -0.78125,-0.4375 z m 0,0"
   style="stroke:none;stroke-width:0"
   inkscape:connector-curvature="0" />
<path
   id="path1568"
   transform="translate(180.54051,134.765)"
   d="m 6.171875,-3.34375 c 0.171875,-0.5 0.484375,-0.640625 0.84375,-0.640625 v -0.3125 C 6.78125,-4.28125 6.5,-4.265625 6.28125,-4.265625 c -0.296875,0 -0.734375,-0.015625 -0.921875,-0.03125 v 0.3125 c 0.359375,0 0.578125,0.1875 0.578125,0.46875 0,0.0625 0,0.09375 -0.0625,0.21875 L 4.96875,-0.75 3.984375,-3.53125 C 3.953125,-3.65625 3.9375,-3.671875 3.9375,-3.71875 c 0,-0.265625 0.390625,-0.265625 0.59375,-0.265625 v -0.3125 c -0.296875,0.015625 -0.796875,0.03125 -1.046875,0.03125 -0.296875,0 -0.578125,-0.015625 -0.875,-0.03125 v 0.3125 c 0.359375,0 0.515625,0.015625 0.625,0.140625 0.046875,0.0625 0.15625,0.359375 0.21875,0.546875 L 2.609375,-0.875 1.65625,-3.53125 C 1.609375,-3.65625 1.609375,-3.671875 1.609375,-3.71875 1.609375,-3.984375 2,-3.984375 2.1875,-3.984375 v -0.3125 c -0.296875,0.015625 -0.859375,0.03125 -1.078125,0.03125 -0.046875,0 -0.578125,-0.015625 -0.9375,-0.03125 v 0.3125 c 0.5,0 0.625,0.03125 0.75,0.34375 l 1.25,3.53125 C 2.21875,0.03125 2.25,0.109375 2.375,0.109375 c 0.140625,0 0.15625,-0.0625 0.203125,-0.203125 l 1.015625,-2.8125 1.015625,2.828125 c 0.03125,0.109375 0.0625,0.1875 0.203125,0.1875 0.125,0 0.15625,-0.09375 0.1875,-0.1875 z m 0,0"
   style="stroke:none;stroke-width:0"
   inkscape:connector-curvature="0" />
</g>
<g
   id="g1578"
   style="fill:#000000;fill-opacity:1">
  <path
   id="path1572"
   transform="translate(187.45655,134.765)"
   d="M 1.109375,-2.515625 C 1.171875,-4 2.015625,-4.25 2.359375,-4.25 c 1.015625,0 1.125,1.34375 1.125,1.734375 z m 0,0.21875 h 2.78125 c 0.21875,0 0.25,0 0.25,-0.21875 0,-0.984375 -0.546875,-1.953125 -1.78125,-1.953125 -1.15625,0 -2.078125,1.03125 -2.078125,2.28125 0,1.328125 1.046875,2.296875 2.1875,2.296875 C 3.6875,0.109375 4.140625,-1 4.140625,-1.1875 4.140625,-1.28125 4.0625,-1.3125 4,-1.3125 c -0.078125,0 -0.109375,0.0625 -0.125,0.140625 -0.34375,1.03125 -1.25,1.03125 -1.34375,1.03125 -0.5,0 -0.890625,-0.296875 -1.125,-0.671875 -0.296875,-0.46875 -0.296875,-1.125 -0.296875,-1.484375 z m 0,0"
   style="stroke:none;stroke-width:0"
   inkscape:connector-curvature="0" />
<path
   id="path1574"
   transform="translate(191.88393,134.765)"
   d="M 1.671875,-3.3125 V -4.40625 L 0.28125,-4.296875 v 0.3125 c 0.703125,0 0.78125,0.0625 0.78125,0.5625 V -0.75 c 0,0.4375 -0.109375,0.4375 -0.78125,0.4375 V 0 c 0.390625,-0.015625 0.859375,-0.03125 1.140625,-0.03125 0.390625,0 0.859375,0 1.265625,0.03125 V -0.3125 H 2.46875 c -0.734375,0 -0.75,-0.109375 -0.75,-0.46875 V -2.3125 c 0,-0.984375 0.421875,-1.875 1.171875,-1.875 0.0625,0 0.09375,0 0.109375,0.015625 -0.03125,0 -0.234375,0.125 -0.234375,0.390625 0,0.265625 0.21875,0.421875 0.4375,0.421875 0.171875,0 0.421875,-0.125 0.421875,-0.4375 0,-0.3125 -0.3125,-0.609375 -0.734375,-0.609375 -0.734375,0 -1.09375,0.671875 -1.21875,1.09375 z m 0,0"
   style="stroke:none;stroke-width:0"
   inkscape:connector-curvature="0" />
<path
   id="path1576"
   transform="translate(195.78628,134.765)"
   d="m 1.71875,-3.984375 h 1.4375 v -0.3125 H 1.71875 V -6.125 h -0.25 c 0,0.8125 -0.296875,1.875 -1.28125,1.921875 v 0.21875 h 0.84375 v 2.75 c 0,1.21875 0.9375,1.34375 1.296875,1.34375 0.703125,0 0.984375,-0.703125 0.984375,-1.34375 v -0.5625 h -0.25 V -1.25 c 0,0.734375 -0.296875,1.109375 -0.671875,1.109375 -0.671875,0 -0.671875,-0.90625 -0.671875,-1.078125 z m 0,0"
   style="stroke:none;stroke-width:0"
   inkscape:connector-curvature="0" />
</g>
</g>
</g></g><path
       transform="scale(0.1)"
       style="fill:none;stroke:#9d0006;stroke-width:3.00000008;stroke-linecap:butt;stroke-linejoin:miter;stroke-opacity:0.97254902;marker-start:url(#Arrow1Lstart);stroke-miterlimit:4;stroke-dasharray:none"
       d="m 1026.2073,337.07224 h 224.8196"
       id="path1438" /><g
       id="g2969"
       ns1:jacobian_sqrt="1.733333"
       inkscapeversion="1.0.2"
       ns1:alignment="middle center"
       ns1:scale="1.3"
       ns1:preamble="/home/tk/.config/inkscape/extensions/textext/default_packages.tex"
       ns1:text="Angriff \n\nerwartet"
       ns1:pdfconverter="pdf2svg"
       ns1:texconverter="pdflatex"
       ns1:version="0.11.1"
       transform="matrix(1.1643866,0,0,1.1643866,-187.37137,-118.64806)"><g
   id="g2967">
<g
   id="g2945"
   style="fill:#000000;fill-opacity:1">
  <path
   id="path2933"
   d="m 270.80572,135.31364 c -0.0191,0.051 -0.0318,0.0828 -0.0956,0.0828 -0.0637,0 -0.0765,-0.0255 -0.0956,-0.0828 l -0.84088,-2.4271 c -0.0765,-0.21022 -0.23571,-0.27392 -0.45867,-0.27392 v -0.12741 c 0.0956,0.006 0.27393,0.0127 0.41408,0.0127 0.1274,0 0.33762,-0.006 0.4714,-0.0127 v 0.12741 c -0.20385,0 -0.30578,0.10192 -0.30578,0.20385 0,0.0127 0.006,0.0573 0.006,0.0637 l 0.19111,0.52874 h 1.00015 l 0.21659,-0.61792 c 0.006,-0.0191 0.0127,-0.0446 0.0127,-0.0573 0,-0.12103 -0.22933,-0.12103 -0.33763,-0.12103 v -0.12741 c 0.14652,0.0127 0.43319,0.0127 0.58607,0.0127 0.17201,0 0.36312,-0.006 0.52874,-0.0127 v 0.12741 h -0.0701 c -0.24207,0 -0.29941,0.0255 -0.344,0.15926 z m -0.21659,-0.45229 0.45866,-1.32503 h -0.91095 z m 0,0"
   style="stroke:none;stroke-width:0"
   inkscape:connector-curvature="0" />
<path
   id="path2935"
   d="m 272.67991,133.88032 v -1.08933 c 0,-0.17837 -0.0446,-0.17837 -0.31852,-0.17837 v -0.12741 c 0.14652,0.006 0.35037,0.0127 0.46504,0.0127 0.10192,0 0.31214,-0.006 0.45229,-0.0127 v 0.12741 c -0.27392,0 -0.31852,0 -0.31852,0.17837 v 0.7517 c 0,0.42044 0.29304,0.64977 0.54785,0.64977 0.26119,0 0.30578,-0.21659 0.30578,-0.45229 v -0.94918 c 0,-0.17837 -0.0446,-0.17837 -0.31852,-0.17837 v -0.12741 c 0.14015,0.006 0.35037,0.0127 0.45867,0.0127 0.10192,0 0.31851,-0.006 0.45229,-0.0127 v 0.12741 c -0.21022,0 -0.31215,0 -0.31215,0.12103 v 0.77719 c 0,0.35037 0,0.4714 -0.1274,0.61792 -0.0573,0.0701 -0.19111,0.15289 -0.42681,0.15289 -0.29941,0 -0.49052,-0.172 -0.60519,-0.42682 v 0.42682 l -0.57333,-0.0446 v -0.1274 c 0.28667,0 0.31852,-0.0255 0.31852,-0.22933 z m 0,0"
   style="stroke:none;stroke-width:0"
   inkscape:connector-curvature="0" />
<path
   id="path2937"
   d="m 275.39529,133.18595 c -0.35674,0 -0.35674,0.4077 -0.35674,0.49689 0,0.10829 0.006,0.24207 0.0637,0.344 0.0318,0.0446 0.1274,0.15925 0.29303,0.15925 0.35037,0 0.35037,-0.40133 0.35037,-0.49689 0,-0.10829 0,-0.24207 -0.0637,-0.34399 -0.0318,-0.0446 -0.12741,-0.15926 -0.28667,-0.15926 z m -0.4714,-0.15926 c 0,0.0127 0,0.1083 0.0637,0.19111 0.15926,-0.11467 0.33126,-0.12741 0.4077,-0.12741 0.37585,0 0.65615,0.2803 0.65615,0.59245 0,0.15288 -0.0637,0.2994 -0.16563,0.39496 0.14652,0.14015 0.29304,0.15925 0.36311,0.15925 0.0127,0 0.0318,0 0.0446,-0.006 -0.0446,-0.0127 -0.0701,-0.0573 -0.0701,-0.10829 0,-0.0701 0.0573,-0.11467 0.12104,-0.11467 0.0382,0 0.11466,0.0255 0.11466,0.12104 0,0.0701 -0.0446,0.19748 -0.20385,0.19748 -0.0828,0 -0.26119,-0.0255 -0.43318,-0.19111 -0.172,0.13378 -0.33763,0.14652 -0.42682,0.14652 -0.38222,0 -0.66251,-0.2803 -0.66251,-0.59245 0,-0.17837 0.0892,-0.33125 0.19111,-0.42044 -0.051,-0.0573 -0.12741,-0.19111 -0.12741,-0.33763 0,-0.1274 0.0573,-0.28029 0.18474,-0.36311 -0.24844,-0.0637 -0.37585,-0.24207 -0.37585,-0.40133 0,-0.29303 0.40133,-0.516 0.89822,-0.516 0.47777,0 0.89822,0.20385 0.89822,0.52237 0,0.14015 -0.051,0.35037 -0.26119,0.46504 -0.21659,0.10829 -0.45229,0.10829 -0.70073,0.10829 -0.10193,0 -0.27393,0 -0.30578,0.006 -0.12741,0.0191 -0.21022,0.14015 -0.21022,0.27393 z m 0.58607,-1.28681 c -0.41407,0 -0.69437,0.21022 -0.69437,0.42681 0,0.18474 0.15289,0.33763 0.33126,0.344 h 0.24207 c 0.35037,0 0.80267,0 0.80267,-0.344 0,-0.22296 -0.28667,-0.42681 -0.68163,-0.42681 z m 0,0"
   style="stroke:none;stroke-width:0"
   inkscape:connector-curvature="0" />
<path
   id="path2939"
   d="m 277.20322,133.83572 v 0.44593 l -0.56696,-0.0446 v -0.1274 c 0.28666,0 0.31851,-0.0255 0.31851,-0.22933 v -1.08933 c 0,-0.17837 -0.0446,-0.17837 -0.31851,-0.17837 v -0.12741 c 0.15926,0.006 0.35037,0.0127 0.46503,0.0127 0.15926,0 0.35037,0 0.516,-0.0127 v 0.12741 h -0.0892 c -0.2994,0 -0.30577,0.0446 -0.30577,0.19111 v 0.62429 c 0,0.40133 0.172,0.76444 0.47777,0.76444 0.0255,0 0.0382,0 0.0446,-0.006 -0.0127,0 -0.0956,-0.051 -0.0956,-0.15925 0,-0.1083 0.0892,-0.172 0.17837,-0.172 0.0701,0 0.172,0.051 0.172,0.17837 0,0.1274 -0.12741,0.24844 -0.29941,0.24844 -0.2994,0 -0.44592,-0.27393 -0.49688,-0.44592 z m 0,0"
   style="stroke:none;stroke-width:0"
   inkscape:connector-curvature="0" />
<path
   id="path2941"
   d="m 278.83244,134.28165 -0.56697,-0.0446 v -0.1274 c 0.26119,0 0.29941,-0.0255 0.29941,-0.22296 v -1.0957 c 0,-0.17837 -0.0446,-0.17837 -0.31852,-0.17837 v -0.12741 c 0.12741,0.006 0.35037,0.0127 0.44593,0.0127 0.14651,0 0.28666,-0.006 0.42681,-0.0127 v 0.12741 c -0.27392,0 -0.28666,0.0191 -0.28666,0.17837 z m 0.0127,0.70711 c 0,0.1274 -0.0956,0.21659 -0.21023,0.21659 -0.1274,0 -0.21659,-0.1083 -0.21659,-0.21659 0,-0.1083 0.0892,-0.2166 0.21659,-0.2166 0.11467,0 0.21023,0.0892 0.21023,0.2166 z m 0,0"
   style="stroke:none;stroke-width:0"
   inkscape:connector-curvature="0" />
<path
   id="path2943"
   d="m 281.06286,134.10965 h 0.46504 v 0.1274 h -0.47778 v 0.47141 c 0,0.36311 0.19749,0.55422 0.37586,0.55422 0.0127,0 0.0764,0 0.13377,-0.0318 -0.0446,-0.0127 -0.12103,-0.0701 -0.12103,-0.172 0,-0.0892 0.0637,-0.172 0.17837,-0.172 0.11466,0 0.17837,0.0828 0.17837,0.17837 0,0.14652 -0.14652,0.28667 -0.36948,0.28667 -0.24208,0 -0.42045,-0.15289 -0.43956,-0.172 -0.12103,0.15289 -0.35037,0.172 -0.45867,0.172 -0.38222,0 -0.85362,-0.21022 -0.85362,-0.64978 v -0.46503 h -0.32489 v -0.12741 h 0.32489 v -1.3187 c 0,-0.17837 -0.0446,-0.17837 -0.31852,-0.17837 v -0.12741 c 0.13378,0.006 0.35037,0.0127 0.4523,0.0127 0.10192,0 0.2994,-0.006 0.45229,-0.0127 v 0.12741 c -0.27392,0 -0.31852,0 -0.31852,0.17837 v 1.31866 h 0.85363 V 132.791 c 0,-0.17837 -0.0446,-0.17837 -0.31852,-0.17837 v -0.12741 c 0.15926,0.006 0.35037,0.0127 0.46504,0.0127 0.15926,0 0.35037,0 0.516,-0.0127 v 0.12741 h -0.0892 c -0.2994,0 -0.30578,0.0446 -0.30578,0.19111 z m -1.13392,0.1274 v 0.45867 c 0,0.39496 0.33126,0.56696 0.59881,0.56696 0.19749,0 0.31215,-0.0764 0.31215,-0.0764 v -0.006 c -0.0637,-0.006 -0.14652,-0.0637 -0.14652,-0.172 0,-0.0255 0,-0.12741 0.11467,-0.16563 -0.0127,-0.051 -0.0127,-0.0892 -0.0127,-0.14015 v -0.46503 z m 0,0"
   style="stroke:none;stroke-width:0"
   inkscape:connector-curvature="0" />
</g>
<g
   id="g2953"
   style="fill:#000000;fill-opacity:1">
  <path
   id="path2947"
   d="m 269.63995,128.63676 c 0.0255,0.60518 0.36948,0.70711 0.50963,0.70711 0.41407,0 0.45866,-0.54785 0.45866,-0.70711 z m 0,-0.0892 h 1.13392 c 0.0892,0 0.10193,0 0.10193,0.0892 0,0.40133 -0.22297,0.79629 -0.72622,0.79629 -0.47141,0 -0.84726,-0.42044 -0.84726,-0.93007 0,-0.54148 0.42682,-0.93644 0.89185,-0.93644 0.49688,0 0.68163,0.4523 0.68163,0.52874 0,0.0382 -0.0318,0.051 -0.0573,0.051 -0.0318,0 -0.0446,-0.0255 -0.051,-0.0573 -0.14015,-0.42044 -0.50963,-0.42044 -0.54785,-0.42044 -0.20385,0 -0.36311,0.12103 -0.45867,0.27392 -0.12103,0.19111 -0.12103,0.45867 -0.12103,0.60518 z m 0,0"
   style="stroke:none;stroke-width:0"
   inkscape:connector-curvature="0" />
<path
   id="path2949"
   d="m 271.67433,128.96165 v 0.44592 l -0.56696,-0.0446 v -0.12741 c 0.28667,0 0.31852,-0.0255 0.31852,-0.22933 v -1.08933 c 0,-0.17837 -0.0446,-0.17837 -0.31852,-0.17837 v -0.12741 c 0.15926,0.006 0.35037,0.0127 0.46504,0.0127 0.15926,0 0.35037,0 0.51599,-0.0127 v 0.12741 h -0.0892 c -0.2994,0 -0.30578,0.0446 -0.30578,0.19111 v 0.6243 c 0,0.40132 0.172,0.76444 0.47778,0.76444 0.0255,0 0.0382,0 0.0446,-0.006 -0.0127,0 -0.0956,-0.051 -0.0956,-0.15926 0,-0.1083 0.0892,-0.172 0.17837,-0.172 0.0701,0 0.172,0.051 0.172,0.17837 0,0.12741 -0.12741,0.24844 -0.29941,0.24844 -0.29941,0 -0.44592,-0.27392 -0.49689,-0.44592 z m 0,0"
   style="stroke:none;stroke-width:0"
   inkscape:connector-curvature="0" />
<path
   id="path2951"
   d="m 275.09999,128.97439 c 0.0701,0.20385 0.19748,0.26118 0.344,0.26118 v 0.12741 c -0.0956,-0.006 -0.21023,-0.0127 -0.29941,-0.0127 -0.12103,0 -0.2994,0.006 -0.37585,0.0127 v -0.12741 c 0.14652,0 0.2357,-0.0764 0.2357,-0.19111 0,-0.0255 0,-0.0382 -0.0255,-0.0892 l -0.36948,-1.03836 -0.40133,1.13392 c -0.0127,0.051 -0.0191,0.0573 -0.0191,0.0765 0,0.10829 0.15926,0.10829 0.24207,0.10829 v 0.12741 c -0.12103,-0.006 -0.32488,-0.0127 -0.42681,-0.0127 -0.12104,0 -0.2357,0.006 -0.35674,0.0127 v -0.12741 c 0.14652,0 0.21022,-0.006 0.25482,-0.0573 0.0191,-0.0255 0.0637,-0.14652 0.0892,-0.22297 l -0.344,-0.9874 -0.38859,1.08296 c -0.0191,0.051 -0.0191,0.0573 -0.0191,0.0765 0,0.10829 0.15926,0.10829 0.2357,0.10829 v 0.12741 c -0.12104,-0.006 -0.35037,-0.0127 -0.43955,-0.0127 -0.0191,0 -0.23571,0.006 -0.38222,0.0127 v -0.12741 c 0.20385,0 0.25481,-0.0127 0.30577,-0.14015 l 0.50963,-1.4397 c 0.0191,-0.0573 0.0318,-0.0892 0.0828,-0.0892 0.0573,0 0.0637,0.0255 0.0828,0.0828 l 0.41407,1.14666 0.41407,-1.15304 c 0.0127,-0.0446 0.0255,-0.0764 0.0828,-0.0764 0.051,0 0.0637,0.0382 0.0764,0.0764 z m 0,0"
   style="stroke:none;stroke-width:0"
   inkscape:connector-curvature="0" />
</g>
<g
   id="g2965"
   style="fill:#000000;fill-opacity:1">
  <path
   id="path2955"
   d="m 276.7539,127.91691 c 0.0191,-0.15926 0.1274,-0.33126 0.31852,-0.33126 0.0892,0 0.33763,0.0573 0.33763,0.38859 v 0.22933 h -0.10193 v -0.22933 c 0,-0.2357 -0.10193,-0.26118 -0.14652,-0.26118 -0.13378,0 -0.15289,0.18474 -0.15289,0.20385 v 0.80903 c 0,0.172 0,0.33126 -0.14651,0.48415 -0.15926,0.15926 -0.36312,0.22296 -0.55423,0.22296 -0.33762,0 -0.61792,-0.19111 -0.61792,-0.45866 0,-0.12104 0.0828,-0.19111 0.19111,-0.19111 0.11467,0 0.18474,0.0828 0.18474,0.18474 0,0.051 -0.0191,0.18474 -0.21022,0.18474 0.11467,0.14651 0.31215,0.19111 0.43955,0.19111 0.20385,0 0.43319,-0.15926 0.43319,-0.52237 v -0.14652 c -0.21022,-0.0127 -0.49052,-0.0255 -0.74533,-0.14652 -0.30578,-0.14014 -0.4077,-0.35037 -0.4077,-0.52874 0,-0.33125 0.39496,-0.43318 0.64977,-0.43318 0.26756,0 0.45229,0.16563 0.52874,0.35037 z m -0.0255,0.66889 v -0.40771 c 0,-0.38222 -0.29304,-0.52237 -0.47778,-0.52237 -0.19748,0 -0.36311,0.14015 -0.36311,0.344 0,0.22297 0.172,0.56059 0.84089,0.58608 z m 0,0"
   style="stroke:none;stroke-width:0"
   inkscape:connector-curvature="0" />
<path
   id="path2957"
   d="m 278.1159,128.96165 v 0.44592 l -0.56696,-0.0446 v -0.12741 c 0.28666,0 0.31851,-0.0255 0.31851,-0.22933 v -1.08933 c 0,-0.17837 -0.0446,-0.17837 -0.31851,-0.17837 v -0.12741 c 0.15926,0.006 0.35037,0.0127 0.46503,0.0127 0.15926,0 0.35037,0 0.516,-0.0127 v 0.12741 h -0.0892 c -0.29941,0 -0.30578,0.0446 -0.30578,0.19111 v 0.6243 c 0,0.40132 0.172,0.76444 0.47778,0.76444 0.0255,0 0.0382,0 0.0446,-0.006 -0.0127,0 -0.0956,-0.051 -0.0956,-0.15926 0,-0.1083 0.0892,-0.172 0.17837,-0.172 0.0701,0 0.172,0.051 0.172,0.17837 0,0.12741 -0.12741,0.24844 -0.2994,0.24844 -0.29941,0 -0.44593,-0.27392 -0.49689,-0.44592 z m 0,0"
   style="stroke:none;stroke-width:0"
   inkscape:connector-curvature="0" />
<path
   id="path2959"
   d="m 279.726,129.23557 h 0.58608 v 0.12741 H 279.726 v 0.74533 h -0.10192 c 0,-0.33126 -0.12104,-0.76444 -0.52237,-0.78356 v -0.0892 h 0.344 v -1.12118 c 0,-0.49689 0.38222,-0.54785 0.52874,-0.54785 0.28666,0 0.40133,0.28667 0.40133,0.54785 v 0.22933 h -0.10193 v -0.22296 c 0,-0.29941 -0.12103,-0.45229 -0.27392,-0.45229 -0.27393,0 -0.27393,0.36948 -0.27393,0.43955 z m 0,0"
   style="stroke:none;stroke-width:0"
   inkscape:connector-curvature="0" />
<path
   id="path2961"
   d="m 281.05718,128.63676 c 0.0255,0.60518 0.36948,0.70711 0.50963,0.70711 0.41408,0 0.45867,-0.54785 0.45867,-0.70711 z m 0,-0.0892 h 1.13393 c 0.0892,0 0.10192,0 0.10192,0.0892 0,0.40133 -0.22296,0.79629 -0.72622,0.79629 -0.4714,0 -0.84725,-0.42044 -0.84725,-0.93007 0,-0.54148 0.42681,-0.93644 0.89185,-0.93644 0.49688,0 0.68162,0.4523 0.68162,0.52874 0,0.0382 -0.0318,0.051 -0.0573,0.051 -0.0318,0 -0.0446,-0.0255 -0.051,-0.0573 -0.14015,-0.42044 -0.50963,-0.42044 -0.54785,-0.42044 -0.20385,0 -0.36311,0.12103 -0.45867,0.27392 -0.12104,0.19111 -0.12104,0.45867 -0.12104,0.60518 z m 0,0"
   style="stroke:none;stroke-width:0"
   inkscape:connector-curvature="0" />
<path
   id="path2963"
   d="m 283.11068,129.23557 h 0.58607 v 0.12741 h -0.58607 v 0.74533 h -0.10192 c 0,-0.33126 -0.12104,-0.76444 -0.52237,-0.78356 v -0.0892 h 0.344 v -1.12118 c 0,-0.49689 0.38222,-0.54785 0.52873,-0.54785 0.28667,0 0.40134,0.28667 0.40134,0.54785 v 0.22933 h -0.10193 v -0.22296 c 0,-0.29941 -0.12104,-0.45229 -0.27393,-0.45229 -0.27392,0 -0.27392,0.36948 -0.27392,0.43955 z m 0,0"
   style="stroke:none;stroke-width:0"
   inkscape:connector-curvature="0" />
</g>
</g>
</g><g
       id="g3141"
       ns1:jacobian_sqrt="1.733333"
       inkscapeversion="1.0.2"
       ns1:alignment="middle center"
       ns1:scale="1.3"
       ns1:preamble="/home/tk/.config/inkscape/extensions/textext/default_packages.tex"
       ns1:text="$t_{Angriff}$"
       ns1:pdfconverter="pdf2svg"
       ns1:texconverter="pdflatex"
       ns1:version="0.11.1"
       transform="matrix(0.90094258,0,0,-0.90094258,-45.233229,255.32121)"><g
   id="g3139">
<g
   id="g3115"
   style="fill:#000000;fill-opacity:1">
  <path
   id="path3113"
   transform="translate(148.712,134.765)"
   d="m 2.046875,-3.984375 h 0.9375 c 0.203125,0 0.3125,0 0.3125,-0.203125 0,-0.109375 -0.109375,-0.109375 -0.28125,-0.109375 h -0.875 C 2.5,-5.71875 2.546875,-5.90625 2.546875,-5.96875 c 0,-0.171875 -0.125,-0.265625 -0.296875,-0.265625 -0.03125,0 -0.3125,0 -0.390625,0.359375 L 1.46875,-4.296875 h -0.9375 c -0.203125,0 -0.296875,0 -0.296875,0.1875 0,0.125 0.078125,0.125 0.28125,0.125 h 0.875 C 0.671875,-1.15625 0.625,-0.984375 0.625,-0.8125 0.625,-0.265625 1,0.109375 1.546875,0.109375 2.5625,0.109375 3.125,-1.34375 3.125,-1.421875 3.125,-1.53125 3.046875,-1.53125 3.015625,-1.53125 2.921875,-1.53125 2.90625,-1.5 2.859375,-1.390625 2.4375,-0.34375 1.90625,-0.109375 1.5625,-0.109375 c -0.203125,0 -0.3125,-0.125 -0.3125,-0.453125 0,-0.25 0.03125,-0.3125 0.0625,-0.484375 z m 0,0"
   style="stroke:none;stroke-width:0"
   inkscape:connector-curvature="0" />
</g>
<g
   id="g3123"
   style="fill:#000000;fill-opacity:1">
  <path
   id="path3117"
   transform="translate(152.31,136.259)"
   d="m 1.4375,-0.84375 c -0.25,0.390625 -0.46875,0.5625 -0.875,0.59375 -0.078125,0 -0.171875,0 -0.171875,0.140625 C 0.390625,-0.03125 0.453125,0 0.5,0 0.671875,0 0.90625,-0.03125 1.09375,-0.03125 1.3125,-0.03125 1.609375,0 1.8125,0 1.84375,0 1.953125,0 1.953125,-0.15625 1.953125,-0.25 1.859375,-0.25 1.828125,-0.25 1.78125,-0.265625 1.53125,-0.265625 1.53125,-0.453125 c 0,-0.09375 0.0625,-0.203125 0.09375,-0.265625 l 0.5625,-0.875 h 2 L 4.34375,-0.4375 C 4.328125,-0.359375 4.28125,-0.25 3.875,-0.25 c -0.09375,0 -0.1875,0 -0.1875,0.15625 C 3.6875,-0.0625 3.703125,0 3.796875,0 4,0 4.5,-0.03125 4.703125,-0.03125 c 0.125,0 0.28125,0.015625 0.40625,0.015625 C 5.234375,-0.015625 5.375,0 5.5,0 5.59375,0 5.640625,-0.0625 5.640625,-0.140625 5.640625,-0.25 5.5625,-0.25 5.453125,-0.25 c -0.40625,0 -0.421875,-0.0625 -0.4375,-0.21875 l -0.625,-4.3125 C 4.375,-4.921875 4.359375,-4.96875 4.234375,-4.96875 4.09375,-4.96875 4.0625,-4.90625 4,-4.8125 Z m 0.921875,-1 L 3.8125,-4.125 4.140625,-1.84375 Z m 0,0"
   style="stroke:none;stroke-width:0"
   inkscape:connector-curvature="0" />
<path
   id="path3119"
   transform="translate(158.30119,136.259)"
   d="m 0.84375,-0.4375 c -0.015625,0.09375 -0.0625,0.265625 -0.0625,0.28125 0,0.15625 0.125,0.21875 0.234375,0.21875 0.125,0 0.234375,-0.078125 0.28125,-0.140625 0.03125,-0.0625 0.078125,-0.296875 0.125,-0.4375 0.03125,-0.125 0.109375,-0.453125 0.140625,-0.625 0.046875,-0.15625 0.09375,-0.3125 0.125,-0.46875 0.078125,-0.28125 0.09375,-0.34375 0.296875,-0.625 C 2.171875,-2.515625 2.5,-2.875 3.03125,-2.875 c 0.390625,0 0.40625,0.359375 0.40625,0.484375 0,0.421875 -0.296875,1.1875 -0.40625,1.484375 -0.078125,0.203125 -0.109375,0.265625 -0.109375,0.375 0,0.375 0.296875,0.59375 0.65625,0.59375 0.703125,0 1,-0.953125 1,-1.0625 0,-0.09375 -0.078125,-0.09375 -0.109375,-0.09375 -0.09375,0 -0.09375,0.046875 -0.125,0.125 C 4.1875,-0.40625 3.875,-0.125 3.609375,-0.125 c -0.15625,0 -0.1875,-0.09375 -0.1875,-0.25 0,-0.15625 0.046875,-0.25 0.171875,-0.5625 0.078125,-0.21875 0.359375,-0.953125 0.359375,-1.34375 0,-0.671875 -0.53125,-0.796875 -0.90625,-0.796875 -0.578125,0 -0.96875,0.359375 -1.171875,0.640625 -0.046875,-0.484375 -0.453125,-0.640625 -0.75,-0.640625 -0.296875,0 -0.453125,0.21875 -0.546875,0.375 -0.15625,0.265625 -0.25,0.65625 -0.25,0.703125 0,0.078125 0.09375,0.078125 0.125,0.078125 0.09375,0 0.09375,-0.015625 0.140625,-0.203125 0.109375,-0.40625 0.25,-0.75 0.515625,-0.75 0.1875,0 0.234375,0.15625 0.234375,0.34375 0,0.125 -0.0625,0.390625 -0.125,0.578125 -0.046875,0.1875 -0.109375,0.46875 -0.140625,0.625 z m 0,0"
   style="stroke:none;stroke-width:0"
   inkscape:connector-curvature="0" />
<path
   id="path3121"
   transform="translate(163.22609,136.259)"
   d="m 3.703125,-2.578125 c 0.03125,-0.09375 0.03125,-0.125 0.03125,-0.140625 0,-0.15625 -0.125,-0.21875 -0.234375,-0.21875 -0.15625,0 -0.296875,0.125 -0.328125,0.265625 -0.109375,-0.1875 -0.34375,-0.40625 -0.71875,-0.40625 -0.859375,0 -1.78125,0.9375 -1.78125,1.9375 0,0.71875 0.484375,1.140625 1.0625,1.140625 0.328125,0 0.625,-0.15625 0.875,-0.375 L 2.453125,0.25 C 2.375,0.546875 2.328125,0.734375 2.0625,0.96875 c -0.3125,0.25 -0.609375,0.25 -0.78125,0.25 -0.3125,0 -0.40625,-0.015625 -0.53125,-0.046875 0.171875,-0.078125 0.21875,-0.25 0.21875,-0.34375 0,-0.171875 -0.125,-0.25 -0.265625,-0.25 C 0.5,0.578125 0.296875,0.734375 0.296875,1 c 0,0.421875 0.609375,0.421875 1,0.421875 1.09375,0 1.546875,-0.5625 1.65625,-0.953125 z M 2.75,-0.921875 c -0.03125,0.09375 -0.03125,0.109375 -0.15625,0.25 C 2.359375,-0.375 2.015625,-0.1875 1.75,-0.1875 c -0.34375,0 -0.515625,-0.3125 -0.515625,-0.671875 0,-0.296875 0.1875,-1.078125 0.375,-1.390625 0.28125,-0.484375 0.609375,-0.625 0.84375,-0.625 0.5,0 0.625,0.515625 0.625,0.59375 0,0.015625 0,0.015625 -0.015625,0.09375 z m 0,0"
   style="stroke:none;stroke-width:0"
   inkscape:connector-curvature="0" />
</g>
<g
   id="g3127"
   style="fill:#000000;fill-opacity:1">
  <path
   id="path3125"
   transform="translate(167.36364,136.259)"
   d="m 1.640625,-1.40625 c 0,-0.046875 0.171875,-0.671875 0.171875,-0.703125 0.015625,-0.0625 0.21875,-0.40625 0.453125,-0.578125 0.0625,-0.046875 0.25,-0.1875 0.5625,-0.1875 0.0625,0 0.234375,0 0.375,0.09375 -0.21875,0.0625 -0.296875,0.265625 -0.296875,0.390625 0,0.140625 0.109375,0.25 0.265625,0.25 0.171875,0 0.390625,-0.125 0.390625,-0.421875 0,-0.359375 -0.375,-0.515625 -0.734375,-0.515625 -0.359375,0 -0.671875,0.15625 -0.984375,0.5 -0.125,-0.421875 -0.546875,-0.5 -0.71875,-0.5 -0.25,0 -0.421875,0.171875 -0.546875,0.359375 -0.15625,0.265625 -0.25,0.671875 -0.25,0.71875 0,0.078125 0.09375,0.078125 0.125,0.078125 0.09375,0 0.09375,-0.015625 0.140625,-0.203125 0.109375,-0.421875 0.25,-0.75 0.515625,-0.75 0.1875,0 0.234375,0.15625 0.234375,0.34375 0,0.125 -0.0625,0.390625 -0.125,0.578125 -0.046875,0.1875 -0.109375,0.46875 -0.140625,0.625 L 0.84375,-0.4375 C 0.828125,-0.34375 0.78125,-0.171875 0.78125,-0.15625 0.78125,0 0.90625,0.0625 1.015625,0.0625 1.125,0.0625 1.265625,0 1.3125,-0.125 1.328125,-0.171875 1.40625,-0.484375 1.453125,-0.65625 Z m 0,0"
   style="stroke:none;stroke-width:0"
   inkscape:connector-curvature="0" />
</g>
<g
   id="g3133"
   style="fill:#000000;fill-opacity:1">
  <path
   id="path3129"
   transform="translate(171.27874,136.259)"
   d="m 2.265625,-4.359375 c 0,-0.109375 -0.09375,-0.265625 -0.28125,-0.265625 -0.1875,0 -0.390625,0.1875 -0.390625,0.390625 0,0.109375 0.078125,0.265625 0.28125,0.265625 0.1875,0 0.390625,-0.203125 0.390625,-0.390625 z M 0.84375,-0.8125 c -0.03125,0.09375 -0.0625,0.171875 -0.0625,0.296875 0,0.328125 0.265625,0.578125 0.65625,0.578125 0.6875,0 1,-0.953125 1,-1.0625 0,-0.09375 -0.09375,-0.09375 -0.109375,-0.09375 -0.09375,0 -0.109375,0.046875 -0.140625,0.125 -0.15625,0.5625 -0.453125,0.84375 -0.734375,0.84375 -0.140625,0 -0.171875,-0.09375 -0.171875,-0.25 0,-0.15625 0.046875,-0.28125 0.109375,-0.4375 C 1.46875,-1 1.546875,-1.1875 1.609375,-1.375 1.671875,-1.546875 1.9375,-2.171875 1.953125,-2.265625 1.984375,-2.328125 2,-2.40625 2,-2.484375 2,-2.8125 1.71875,-3.078125 1.34375,-3.078125 0.640625,-3.078125 0.328125,-2.125 0.328125,-2 c 0,0.078125 0.09375,0.078125 0.125,0.078125 0.09375,0 0.09375,-0.03125 0.125,-0.109375 C 0.75,-2.625 1.0625,-2.875 1.3125,-2.875 c 0.109375,0 0.171875,0.046875 0.171875,0.234375 0,0.171875 -0.03125,0.265625 -0.203125,0.703125 z m 0,0"
   style="stroke:none;stroke-width:0"
   inkscape:connector-curvature="0" />
<path
   id="path3131"
   transform="translate(174.09755,136.259)"
   d="M 2.84375,-2.75 H 3.515625 C 3.65625,-2.75 3.75,-2.75 3.75,-2.90625 3.75,-3 3.65625,-3 3.53125,-3 H 2.890625 c 0.15625,-0.890625 0.203125,-1.203125 0.265625,-1.40625 0.03125,-0.15625 0.1875,-0.296875 0.359375,-0.296875 0,0 0.1875,0 0.328125,0.078125 -0.296875,0.09375 -0.3125,0.34375 -0.3125,0.375 0,0.15625 0.125,0.265625 0.28125,0.265625 0.1875,0 0.390625,-0.15625 0.390625,-0.421875 0,-0.328125 -0.328125,-0.5 -0.6875,-0.5 -0.3125,0 -0.65625,0.171875 -0.84375,0.515625 C 2.53125,-4.125 2.484375,-3.8125 2.328125,-3 H 1.78125 c -0.140625,0 -0.234375,0 -0.234375,0.15625 0,0.09375 0.09375,0.09375 0.21875,0.09375 H 2.28125 c 0,0.046875 -0.4375,2.546875 -0.609375,3.296875 -0.03125,0.15625 -0.15625,0.671875 -0.484375,0.671875 -0.015625,0 -0.171875,0 -0.3125,-0.078125 0.28125,-0.09375 0.3125,-0.34375 0.3125,-0.375 C 1.1875,0.609375 1.0625,0.5 0.90625,0.5 c -0.1875,0 -0.390625,0.15625 -0.390625,0.421875 0,0.3125 0.328125,0.5 0.671875,0.5 0.4375,0 0.75,-0.453125 0.828125,-0.609375 0.25,-0.46875 0.421875,-1.328125 0.4375,-1.40625 z m 0,0"
   style="stroke:none;stroke-width:0"
   inkscape:connector-curvature="0" />
</g>
<g
   id="g3137"
   style="fill:#000000;fill-opacity:1">
  <path
   id="path3135"
   transform="translate(178.76372,136.259)"
   d="M 2.84375,-2.75 H 3.515625 C 3.65625,-2.75 3.75,-2.75 3.75,-2.90625 3.75,-3 3.65625,-3 3.53125,-3 H 2.890625 c 0.15625,-0.890625 0.203125,-1.203125 0.265625,-1.40625 0.03125,-0.15625 0.1875,-0.296875 0.359375,-0.296875 0,0 0.1875,0 0.328125,0.078125 -0.296875,0.09375 -0.3125,0.34375 -0.3125,0.375 0,0.15625 0.125,0.265625 0.28125,0.265625 0.1875,0 0.390625,-0.15625 0.390625,-0.421875 0,-0.328125 -0.328125,-0.5 -0.6875,-0.5 -0.3125,0 -0.65625,0.171875 -0.84375,0.515625 C 2.53125,-4.125 2.484375,-3.8125 2.328125,-3 H 1.78125 c -0.140625,0 -0.234375,0 -0.234375,0.15625 0,0.09375 0.09375,0.09375 0.21875,0.09375 H 2.28125 c 0,0.046875 -0.4375,2.546875 -0.609375,3.296875 -0.03125,0.15625 -0.15625,0.671875 -0.484375,0.671875 -0.015625,0 -0.171875,0 -0.3125,-0.078125 0.28125,-0.09375 0.3125,-0.34375 0.3125,-0.375 C 1.1875,0.609375 1.0625,0.5 0.90625,0.5 c -0.1875,0 -0.390625,0.15625 -0.390625,0.421875 0,0.3125 0.328125,0.5 0.671875,0.5 0.4375,0 0.75,-0.453125 0.828125,-0.609375 0.25,-0.46875 0.421875,-1.328125 0.4375,-1.40625 z m 0,0"
   style="stroke:none;stroke-width:0"
   inkscape:connector-curvature="0" />
</g>
</g>
</g></g></svg>